<?xml version="1.0" standalone="no"?>
<!DOCTYPE svg PUBLIC "-//W3C//DTD SVG 1.1//EN" "http://www.w3.org/Graphics/SVG/1.1/DTD/svg11.dtd" >
<svg xmlns="http://www.w3.org/2000/svg" xmlns:xlink="http://www.w3.org/1999/xlink" version="1.1">
<metadata>
Created by FontForge 20170924 at Fri Feb 17 20:24:16 2006
 By www-data
Copyright (c) Joshua Darden &#38; Phil's Fonts, Inc, 2004. All rights reserved.
</metadata>
<defs>
<font id="Freight-SansBlack" horiz-adv-x="400" >
  <font-face 
    font-family="Freight"
    font-weight="900"
    font-stretch="normal"
    units-per-em="1000"
    panose-1="2 0 6 3 4 0 0 2 0 4"
    ascent="800"
    descent="-200"
    x-height="468"
    cap-height="625"
    bbox="-78 -294 1269 854"
    underline-thickness="20"
    underline-position="-133"
    unicode-range="U+0020-FB04"
  />
<missing-glyph horiz-adv-x="500" 
 />
    <glyph glyph-name=".notdef" horiz-adv-x="500" 
 />
    <glyph glyph-name="space" unicode=" " horiz-adv-x="184" 
 />
    <glyph glyph-name="exclam" unicode="!" horiz-adv-x="319" 
d="M48 652h224l-37 -426h-150zM269 80c0 -65 -43 -95 -110 -95s-110 30 -110 95s43 95 110 95s110 -30 110 -95z" />
    <glyph glyph-name="quotedbl" unicode="&#x22;" horiz-adv-x="503" 
d="M248 398l115 247l164 -36l-146 -211h-133zM8 398l115 247l164 -36l-146 -211h-133z" />
    <glyph glyph-name="numbersign" unicode="#" horiz-adv-x="654" 
d="M34 347v138h139l41 157h142l-42 -157h132l42 157h142l-42 -157h53v-138h-90l-30 -112h100v-138h-137l-46 -171h-142l46 171h-132l-46 -171h-142l46 171h-54v138h91l30 112h-101zM279 356l-35 -130h132l36 130h-133z" />
    <glyph glyph-name="dollar" unicode="$" horiz-adv-x="592" 
d="M299 136c51 3 72 16 72 43c0 23 -17 36 -57 47zM334 731h79l-17 -100c60 -11 109 -27 148 -47l-31 -161c-45 23 -97 38 -144 49l-28 -166h-79l16 95c3 -1 4 -1 7 -2v8c16 -7 43 -13 70 -20c99 -27 203 -72 203 -191c0 -125 -94 -211 -275 -211h-10l-18 -107h-79l19 113
c-68 9 -129 27 -169 50l30 161c49 -24 106 -44 166 -53l16 93c-91 27 -202 70 -202 195c0 123 85 202 256 202h26zM293 489c-46 -1 -69 -15 -69 -42c0 -19 18 -34 54 -46z" />
    <glyph glyph-name="percent" unicode="%" horiz-adv-x="880" 
d="M381 471c0 -113 -67 -179 -182 -179s-179 67 -179 179s68 178 181 178c115 0 180 -67 180 -178zM248 -15h-143l528 654h143zM860 154c0 -113 -67 -179 -182 -179s-179 67 -179 179s68 178 181 178c115 0 180 -67 180 -178zM252 470c0 57 -21 84 -52 84s-52 -28 -52 -84
c0 -57 21 -83 53 -83c31 0 51 27 51 83zM731 153c0 57 -21 84 -52 84s-52 -28 -52 -84c0 -57 21 -83 53 -83c31 0 51 27 51 83z" />
    <glyph glyph-name="ampersand" unicode="&#x26;" horiz-adv-x="676" 
d="M297 395c23 19 40 37 40 69c0 36 -25 56 -57 56c-31 0 -53 -24 -53 -53c0 -35 33 -56 70 -72zM360 180c-43 44 -87 75 -126 90c-27 -19 -43 -47 -43 -74c0 -48 38 -71 75 -71c40 0 67 20 94 55zM432 87c-64 -73 -140 -102 -207 -102c-116 0 -206 64 -206 169
c0 88 69 148 136 164c-44 25 -88 76 -88 141c0 89 75 180 215 180c120 0 214 -55 214 -151c0 -72 -62 -118 -121 -134c16 -8 42 -27 63 -42l39 84h197l-138 -183l149 -189l-192 -34z" />
    <glyph glyph-name="quoteright" unicode="&#x2019;" horiz-adv-x="298" 
d="M15 562c8 66 63 107 128 107c85 0 137 -70 137 -146c0 -96 -86 -163 -179 -208l-86 73c49 32 99 62 99 94c0 28 -22 51 -99 80z" />
    <glyph glyph-name="parenleft" unicode="(" horiz-adv-x="456" 
d="M355 -269c-153 83 -305 266 -305 512s152 429 305 512l104 -132c-123 -80 -225 -212 -225 -380s102 -300 225 -380z" />
    <glyph glyph-name="parenright" unicode=")" horiz-adv-x="456" 
d="M-2 -137c124 79 225 213 225 380s-101 301 -225 380l104 132c153 -83 305 -266 305 -512s-152 -429 -305 -512z" />
    <glyph glyph-name="asterisk" unicode="*" horiz-adv-x="421" 
d="M96 248l-87 121l155 54v11l-155 53l88 121l97 -132l10 4l6 165l142 -47l-99 -135l7 -8l157 50v-151l-157 51l-6 -10l96 -136l-143 -46l-2 166l-11 3z" />
    <glyph glyph-name="plus" unicode="+" horiz-adv-x="547" 
d="M349 172v-170h-150v170h-168l3 139h165v170h150v-170h165l3 -139h-168z" />
    <glyph glyph-name="comma" unicode="," horiz-adv-x="308" 
d="M15 87c8 66 63 107 128 107c85 0 137 -70 137 -146c0 -96 -86 -163 -179 -208l-86 73c49 32 99 62 99 94c0 28 -22 51 -99 80z" />
    <glyph glyph-name="hyphen" unicode="-" horiz-adv-x="404" 
d="M25 169v147h355v-147h-355z" />
    <glyph glyph-name="period" unicode="." horiz-adv-x="308" 
d="M264 90c0 -65 -43 -105 -110 -105s-110 40 -110 105s43 105 110 105s110 -40 110 -105z" />
    <glyph glyph-name="slash" unicode="/" horiz-adv-x="322" 
d="M111 -199h-160l243 901h160z" />
    <glyph glyph-name="zero" unicode="0" horiz-adv-x="572" 
d="M544 243c0 -156 -100 -258 -261 -258c-160 0 -255 99 -255 254c0 156 100 257 258 257c160 0 258 -97 258 -253zM360 240c0 81 -30 120 -75 120s-74 -40 -74 -120c0 -81 30 -119 75 -119c44 0 74 39 74 119z" />
    <glyph glyph-name="one" unicode="1" horiz-adv-x="409" 
d="M149 311l-116 -21l-3 153l309 55v-498h-190v311z" />
    <glyph glyph-name="two" unicode="2" horiz-adv-x="522" 
d="M39 0v125c166 99 231 129 231 172c0 30 -22 45 -66 45c-41 0 -94 -19 -147 -51l-38 137c61 40 155 69 236 69c142 0 219 -69 219 -163c0 -69 -55 -133 -184 -185h206l3 -149h-460z" />
    <glyph glyph-name="three" unicode="3" horiz-adv-x="503" 
d="M341 177c95 -19 146 -82 146 -158c0 -130 -125 -206 -271 -206c-84 0 -149 20 -209 51l20 148c52 -29 117 -52 169 -55c61 -3 97 20 97 63c0 41 -26 62 -103 65c-27 1 -57 0 -76 -3v132c80 11 151 20 151 80c0 33 -24 53 -80 53c-45 0 -97 -24 -140 -52l-37 133
c60 40 133 69 229 69c129 0 232 -63 232 -168c0 -73 -57 -128 -128 -152z" />
    <glyph glyph-name="four" unicode="4" horiz-adv-x="599" 
d="M489 0v-169h-176v169h-260l-24 118l244 365h216v-339h97l3 -144h-100zM324 343l-128 -204h128v204z" />
    <glyph glyph-name="five" unicode="5" horiz-adv-x="523" 
d="M231 236c8 0 18 1 37 1c153 0 228 -83 228 -188c0 -134 -98 -236 -277 -236c-57 0 -136 10 -195 34l14 155c49 -24 123 -41 173 -41c68 0 104 24 104 71c0 44 -31 72 -123 72c-43 0 -95 -9 -126 -21l-21 26l44 374h394l3 -149h-242z" />
    <glyph glyph-name="six" unicode="6" horiz-adv-x="598" 
d="M34 287c0 202 163 376 418 400l44 -150c-131 -16 -249 -76 -275 -159l5 -4c29 31 83 60 155 60c113 0 191 -70 191 -199c0 -140 -93 -250 -269 -250c-171 0 -269 123 -269 302zM232 225c0 -53 24 -103 75 -103c43 0 71 34 71 94c0 51 -26 83 -73 83
c-28 0 -54 -12 -69 -24c-3 -15 -4 -34 -4 -50z" />
    <glyph glyph-name="seven" unicode="7" horiz-adv-x="523" 
d="M19 326l3 157h482v-121l-260 -531h-183l254 495h-296z" />
    <glyph glyph-name="eight" unicode="8" horiz-adv-x="549" 
d="M297 373c35 23 48 54 48 71c0 44 -25 69 -68 69c-41 0 -66 -27 -66 -64c0 -32 21 -57 86 -76zM251 252c-39 -23 -52 -55 -52 -74c0 -39 28 -69 81 -69c47 0 74 24 74 65c0 35 -34 61 -103 78zM396 333c68 -24 128 -71 128 -152c0 -113 -79 -196 -253 -196
c-136 0 -246 57 -246 176c0 63 41 112 130 133c-67 27 -121 72 -121 152c0 115 75 193 246 193c136 0 235 -57 235 -176c0 -60 -38 -107 -119 -130z" />
    <glyph glyph-name="nine" unicode="9" horiz-adv-x="598" 
d="M564 195c0 -202 -163 -374 -418 -398l-44 148c131 16 247 76 268 159l-5 4c-24 -31 -82 -60 -143 -60c-115 0 -196 68 -196 193c0 140 94 256 269 256c171 0 269 -123 269 -302zM366 257c0 54 -24 103 -75 103c-43 0 -71 -34 -71 -94c0 -51 26 -83 73 -83
c28 0 54 12 69 24c3 15 4 34 4 50z" />
    <glyph glyph-name="colon" unicode=":" horiz-adv-x="308" 
d="M264 358c0 -65 -43 -105 -110 -105s-110 40 -110 105s43 105 110 105s110 -40 110 -105zM264 90c0 -65 -43 -105 -110 -105s-110 40 -110 105s43 105 110 105s110 -40 110 -105z" />
    <glyph glyph-name="semicolon" unicode=";" horiz-adv-x="308" 
d="M264 358c0 -65 -43 -105 -110 -105s-110 40 -110 105s43 105 110 105s110 -40 110 -105zM15 87c8 66 63 107 128 107c85 0 137 -70 137 -146c0 -96 -86 -163 -179 -208l-86 73c49 32 99 62 99 94c0 28 -22 51 -99 80z" />
    <glyph glyph-name="less" unicode="&#x3c;" horiz-adv-x="514" 
d="M452 -3l-401 178v120l401 179v-144l-218 -90v-10l218 -88v-145z" />
    <glyph glyph-name="equal" unicode="=" horiz-adv-x="527" 
d="M51 284l-5 137h437l-5 -137h-427zM46 48l5 137h427l5 -137h-437z" />
    <glyph glyph-name="greater" unicode="&#x3e;" horiz-adv-x="516" 
d="M58 -3v145l217 88v10l-217 90v144l400 -179v-120z" />
    <glyph glyph-name="question" unicode="?" horiz-adv-x="450" 
d="M420 435c0 -76 -50 -122 -122 -143c-39 -11 -58 -16 -69 -23c0 -3 52 -40 55 -43c-22 -3 -42 -5 -59 -8c-31 -4 -62 -9 -69 -9c-60 22 -86 73 -86 112c0 44 31 77 100 93c55 13 72 17 72 36c0 27 -35 35 -82 35c-35 0 -89 -11 -120 -24l9 156c31 13 75 23 127 23
c147 0 244 -86 244 -205zM304 80c0 -65 -43 -95 -110 -95s-110 30 -110 95s43 95 110 95s110 -30 110 -95z" />
    <glyph glyph-name="at" unicode="@" horiz-adv-x="872" 
d="M623 196c-15 -65 2 -91 54 -91c57 0 123 73 123 204c0 187 -166 308 -340 308c-203 0 -364 -173 -364 -374c0 -191 138 -345 333 -345c44 0 86 8 129 21l12 -39c-48 -16 -92 -24 -143 -24c-219 0 -377 170 -377 386c0 227 180 416 410 416c205 0 386 -134 386 -349
c0 -185 -108 -276 -225 -276c-75 0 -124 30 -143 89c-35 -43 -81 -62 -122 -62c-74 0 -136 59 -136 166c0 139 89 231 212 231c23 0 51 -8 76 -19l167 20zM499 329c-13 11 -27 22 -50 22c-47 0 -76 -54 -76 -114c0 -43 21 -67 50 -67c23 0 35 9 46 18z" />
    <glyph glyph-name="A" unicode="A" horiz-adv-x="679" 
d="M678 0h-195l-39 117h-212l-37 -117h-194l215 625h251zM340 484l-70 -219h136z" />
    <glyph glyph-name="B" unicode="B" horiz-adv-x="648" 
d="M486 329c79 -11 140 -65 140 -145c0 -97 -44 -184 -264 -184h-304v625h303c205 0 246 -74 246 -162c0 -75 -46 -115 -121 -134zM410 428c0 38 -25 57 -74 57h-88v-117h82c53 0 80 20 80 60zM427 199c0 43 -33 58 -89 58h-90v-117h92c60 0 87 18 87 59z" />
    <glyph glyph-name="C" unicode="C" horiz-adv-x="619" 
d="M537 433c-43 25 -99 42 -150 42c-96 0 -154 -61 -154 -161c0 -101 53 -164 154 -164c59 0 110 17 159 46l43 -169c-49 -24 -138 -42 -212 -42c-209 0 -342 109 -342 325c0 203 131 330 350 330c80 0 151 -17 211 -44z" />
    <glyph glyph-name="D" unicode="D" horiz-adv-x="700" 
d="M669 317c0 -192 -130 -317 -366 -317h-245v625h259c227 0 352 -122 352 -308zM471 311c0 116 -52 163 -167 163h-49v-323h59c99 0 157 48 157 160z" />
    <glyph glyph-name="E" unicode="E" horiz-adv-x="587" 
d="M58 0v625h488v-153h-296v-82h234v-153h-234v-84h296v-153h-488z" />
    <glyph glyph-name="F" unicode="F" horiz-adv-x="564" 
d="M58 625h478v-158h-284v-90h222v-156h-222v-221h-194v625z" />
    <glyph glyph-name="G" unicode="G" horiz-adv-x="690" 
d="M645 42c-69 -35 -158 -57 -262 -57c-209 0 -348 115 -348 325c0 208 133 330 350 330c84 0 185 -17 249 -54l-61 -162c-65 36 -121 51 -180 51c-101 0 -162 -66 -162 -161c0 -111 47 -171 158 -171c27 0 61 4 81 12v63h-143v151h318v-327z" />
    <glyph glyph-name="H" unicode="H" horiz-adv-x="714" 
d="M459 0v233h-204v-233h-197v625h197v-228h204v228h197v-625h-197z" />
    <glyph glyph-name="I" unicode="I" horiz-adv-x="315" 
d="M59 0v625h197v-625h-197z" />
    <glyph glyph-name="J" unicode="J" horiz-adv-x="499" 
d="M447 236c0 -163 -75 -251 -242 -251c-76 0 -151 18 -198 45l41 152c44 -23 85 -36 120 -36c61 0 82 28 82 105v374h197v-389z" />
    <glyph glyph-name="K" unicode="K" horiz-adv-x="665" 
d="M256 360l178 265h221l-225 -303l232 -322h-231l-175 264h-1v-264h-197v625h197v-265h1z" />
    <glyph glyph-name="L" unicode="L" horiz-adv-x="533" 
d="M58 0v625h197v-464h241v-161h-438z" />
    <glyph glyph-name="M" unicode="M" horiz-adv-x="891" 
d="M660 462l-109 -452h-214l-110 450l-2 -460h-181l22 625h283l98 -446l98 446h280l22 -625h-185z" />
    <glyph glyph-name="N" unicode="N" horiz-adv-x="733" 
d="M492 625h183v-631h-209l-225 360v-354h-183v625h212l222 -355v355z" />
    <glyph glyph-name="O" unicode="O" horiz-adv-x="739" 
d="M704 315c0 -204 -148 -330 -336 -330s-333 108 -333 326c0 204 148 329 336 329s333 -106 333 -325zM506 311c0 103 -47 174 -138 174c-92 0 -135 -70 -135 -170c0 -103 47 -175 138 -175s135 71 135 171z" />
    <glyph glyph-name="P" unicode="P" horiz-adv-x="624" 
d="M596 401c0 -151 -99 -233 -291 -233h-50v-168h-197v625h260c177 0 278 -90 278 -224zM401 397c0 52 -33 78 -98 78h-54v-163l50 1c71 1 102 28 102 84z" />
    <glyph glyph-name="Q" unicode="Q" horiz-adv-x="739" 
d="M731 -8l-76 -158l-281 151h-6c-188 0 -333 108 -333 326c0 204 148 329 336 329s333 -106 333 -325c0 -117 -52 -205 -133 -261zM506 311c0 103 -47 174 -138 174c-92 0 -135 -70 -135 -170c0 -103 47 -178 138 -178c92 0 135 69 135 174z" />
    <glyph glyph-name="R" unicode="R" horiz-adv-x="654" 
d="M255 0h-197v625h283c175 0 266 -80 266 -205c0 -80 -38 -147 -122 -180l155 -240h-218l-112 190l-55 -5v-185zM319 326c60 7 84 29 84 80c0 47 -26 69 -98 69h-54v-150z" />
    <glyph glyph-name="S" unicode="S" horiz-adv-x="592" 
d="M286 144c45 0 75 9 75 36c0 31 -44 38 -117 60c-92 27 -208 69 -208 197c0 123 85 202 256 202c112 0 192 -24 252 -55l-31 -161c-71 35 -155 57 -220 57c-39 0 -60 -8 -60 -33c0 -29 60 -44 122 -60c99 -27 203 -72 203 -191c0 -125 -94 -211 -275 -211
c-104 0 -200 25 -257 56l30 161c68 -33 150 -58 230 -58z" />
    <glyph glyph-name="T" unicode="T" horiz-adv-x="623" 
d="M410 464v-464h-197v464h-189v161h575v-161h-189z" />
    <glyph glyph-name="U" unicode="U" horiz-adv-x="686" 
d="M634 262c0 -193 -120 -277 -291 -277c-166 0 -291 72 -291 261v379h197v-355c0 -84 29 -123 97 -123c65 0 92 30 92 118v360h196v-363z" />
    <glyph glyph-name="V" unicode="V" horiz-adv-x="671" 
d="M459 0h-250l-202 625h204l124 -438l124 438h205z" />
    <glyph glyph-name="W" unicode="W" horiz-adv-x="985" 
d="M387 0h-207l-161 625h212l57 -408l95 408h225l95 -408l58 408h205l-162 -625h-208l-104 407z" />
    <glyph glyph-name="X" unicode="X" horiz-adv-x="681" 
d="M223 0h-213l211 313l-205 312h218l106 -181l110 181h215l-207 -306l213 -319h-219l-114 191z" />
    <glyph glyph-name="Y" unicode="Y" horiz-adv-x="648" 
d="M421 231v-231h-193v232l-218 393h206l110 -224l106 224h206z" />
    <glyph glyph-name="Z" unicode="Z" horiz-adv-x="611" 
d="M35 0v126l291 338h-285v161h533v-127l-289 -336h288v-162h-538z" />
    <glyph glyph-name="bracketleft" unicode="[" horiz-adv-x="440" 
d="M60 -197v897h375v-139h-203v-619h203v-139h-375z" />
    <glyph glyph-name="backslash" unicode="\" horiz-adv-x="331" 
d="M138 702l243 -901h-160l-243 901h160z" />
    <glyph glyph-name="bracketright" unicode="]" horiz-adv-x="441" 
d="M6 -58h203v619h-203v139h375v-897h-375v139z" />
    <glyph glyph-name="asciicircum" unicode="^" 
d="M276 530l-75 98h-3l-71 -98h-131l121 187h166l121 -187h-128z" />
    <glyph glyph-name="underscore" unicode="_" horiz-adv-x="585" 
d="M-6 -147v147h597v-147h-597z" />
    <glyph glyph-name="quoteleft" unicode="&#x2018;" horiz-adv-x="298" 
d="M283 405c-8 -66 -62 -107 -128 -107c-85 0 -137 70 -137 146c0 96 86 163 179 208l86 -73c-49 -32 -99 -62 -99 -94c0 -28 22 -51 99 -80z" />
    <glyph glyph-name="a" unicode="a" horiz-adv-x="542" 
d="M304 196c-73 -7 -100 -19 -100 -54c0 -24 20 -39 45 -39c27 0 44 10 55 22v71zM306 60c-32 -37 -65 -75 -138 -75c-77 0 -139 57 -139 128c0 91 70 162 275 165v7c0 36 -24 54 -71 54c-48 0 -103 -18 -163 -45l-40 133c55 27 136 56 236 56c179 0 232 -83 229 -216
l-1 -109c0 -29 7 -31 34 -35l-19 -131c-116 -17 -173 11 -200 68h-3z" />
    <glyph glyph-name="b" unicode="b" horiz-adv-x="589" 
d="M566 242c0 -163 -113 -255 -233 -255c-35 0 -78 8 -109 20l-177 -22v670l191 22v-259c27 29 72 65 132 65c108 0 196 -89 196 -241zM376 231c0 68 -26 105 -77 105c-29 0 -46 -10 -61 -26v-175c13 -7 32 -13 55 -13c52 0 83 41 83 109z" />
    <glyph glyph-name="c" unicode="c" horiz-adv-x="498" 
d="M471 23c-39 -23 -107 -38 -179 -38c-160 0 -266 80 -266 244c0 157 101 254 268 254c69 0 139 -16 180 -39l-34 -137c-36 19 -82 35 -121 35c-64 0 -99 -46 -99 -106c0 -72 42 -109 106 -109c47 0 83 14 118 34z" />
    <glyph glyph-name="d" unicode="d" horiz-adv-x="592" 
d="M354 655l191 22v-677h-191v51c-27 -29 -72 -65 -132 -65c-108 0 -196 89 -196 241c0 163 113 255 233 255c33 0 64 -5 95 -16v189zM354 334c-13 7 -32 13 -55 13c-52 0 -83 -41 -83 -109s34 -105 77 -105c29 0 46 10 61 26v175z" />
    <glyph glyph-name="e" unicode="e" horiz-adv-x="538" 
d="M210 186c7 -47 41 -69 109 -69c52 0 108 20 159 49l15 -142c-51 -23 -122 -38 -194 -38c-168 0 -274 83 -274 245c0 155 106 252 264 252c144 0 220 -83 220 -203c0 -25 -3 -66 -10 -86l-289 -7v-1zM332 273c1 3 1 6 1 10c0 49 -18 77 -55 77c-39 0 -64 -36 -68 -87h122z
" />
    <glyph glyph-name="f" unicode="f" horiz-adv-x="399" 
d="M385 518c-25 11 -45 17 -80 17c-37 0 -47 -20 -47 -52v-24h122l-3 -144h-109v-315h-191v313l-80 6l4 122l75 22l1 30c5 141 67 203 198 203c69 0 117 -13 144 -24z" />
    <glyph glyph-name="g" unicode="g" horiz-adv-x="555" 
d="M203 299c0 -43 15 -71 55 -71s53 27 53 74c0 44 -17 72 -53 72s-55 -28 -55 -75zM171 -61c-7 -9 -15 -20 -15 -39c0 -31 39 -49 102 -49c71 0 121 16 121 48c0 31 -35 37 -111 37c-29 0 -81 3 -97 3zM111 -44c-42 10 -91 38 -91 88c0 48 44 94 105 111
c-59 24 -102 77 -102 145c0 107 91 183 238 183c60 0 117 -19 154 -36l138 11l9 -147l-90 12c3 -5 3 -21 3 -28c0 -95 -87 -168 -215 -168c-19 0 -39 1 -60 4c-11 -7 -18 -14 -18 -26c0 -19 27 -22 75 -22h62c121 0 222 -27 222 -135c0 -124 -154 -199 -314 -199
c-126 0 -233 32 -233 115c0 42 37 84 117 92z" />
    <glyph glyph-name="h" unicode="h" horiz-adv-x="590" 
d="M354 0v268c0 44 -22 58 -51 58c-27 0 -49 -13 -65 -28v-298h-191v655l191 22v-279c40 51 95 85 159 85c93 0 148 -61 148 -161v-322h-191z" />
    <glyph glyph-name="i" unicode="i" horiz-adv-x="285" 
d="M253 611c0 -65 -43 -95 -110 -95s-110 30 -110 95s43 95 110 95s110 -30 110 -95zM47 0v455l191 23v-478h-191z" />
    <glyph glyph-name="j" unicode="j" horiz-adv-x="285" 
d="M253 611c0 -65 -43 -95 -110 -95s-110 30 -110 95s43 95 110 95s110 -30 110 -95zM-37 -111c57 27 84 57 84 156v410l191 23v-452c0 -139 -45 -229 -169 -264z" />
    <glyph glyph-name="k" unicode="k" horiz-adv-x="571" 
d="M238 214v-214h-191v655l191 22v-404h1l117 195h215l-151 -223l152 -245h-212l-121 214h-1z" />
    <glyph glyph-name="l" unicode="l" horiz-adv-x="285" 
d="M47 0v655l191 22v-677h-191z" />
    <glyph glyph-name="m" unicode="m" horiz-adv-x="875" 
d="M639 0v268c0 44 -22 58 -51 58c-21 0 -39 -8 -54 -19v-27v-280h-191v268c0 44 -22 58 -51 58c-21 0 -39 -8 -54 -19v-307h-191v456l191 22v-67c40 43 84 72 148 72c61 0 114 -30 137 -86c40 51 95 86 159 86c93 0 148 -61 148 -161v-322h-191z" />
    <glyph glyph-name="n" unicode="n" horiz-adv-x="590" 
d="M354 0v268c0 44 -22 58 -51 58c-27 0 -49 -13 -65 -28v-298h-191v456l191 22v-80c40 51 95 85 159 85c93 0 148 -61 148 -161v-322h-191z" />
    <glyph glyph-name="o" unicode="o" horiz-adv-x="575" 
d="M550 236c0 -160 -121 -251 -266 -251s-259 83 -259 247c0 163 121 251 266 251s259 -87 259 -247zM361 235c0 69 -25 109 -74 109c-48 0 -73 -40 -73 -111c0 -69 25 -108 74 -108c48 0 73 39 73 110z" />
    <glyph glyph-name="p" unicode="p" horiz-adv-x="592" 
d="M238 418c27 29 70 65 131 65c108 0 197 -89 197 -241c0 -163 -113 -255 -233 -255c-33 0 -64 5 -95 16v-196h-191v649l191 22v-60zM238 135c13 -7 32 -13 55 -13c52 0 83 41 83 109s-26 105 -77 105c-29 0 -46 -10 -61 -26v-175z" />
    <glyph glyph-name="q" unicode="q" horiz-adv-x="592" 
d="M354 -193v244c-27 -29 -72 -65 -132 -65c-108 0 -196 89 -196 241c0 163 113 255 233 255c35 0 84 -10 109 -25l177 21v-671h-191zM354 334c-13 7 -32 13 -55 13c-52 0 -83 -41 -83 -109s34 -105 77 -105c29 0 46 10 61 26v175z" />
    <glyph glyph-name="r" unicode="r" horiz-adv-x="412" 
d="M238 0h-191v455l191 23v-62c24 45 58 67 103 67c23 0 48 -4 73 -17l-36 -166c-15 7 -32 11 -51 11c-35 0 -65 -13 -89 -54v-257z" />
    <glyph glyph-name="s" unicode="s" horiz-adv-x="491" 
d="M467 142c0 -83 -74 -157 -230 -157c-69 0 -164 15 -217 41l35 129c63 -29 128 -45 185 -45c36 0 48 9 48 24c0 16 -11 23 -64 34c-131 23 -197 66 -197 161c0 89 77 154 225 154c67 0 163 -19 210 -43l-36 -128c-60 29 -127 46 -174 46c-32 0 -45 -7 -45 -23
s18 -21 67 -32c132 -27 193 -64 193 -161z" />
    <glyph glyph-name="t" unicode="t" horiz-adv-x="397" 
d="M377 0c-36 -10 -64 -15 -118 -15c-129 0 -198 49 -191 182l7 137l-66 15l3 122l66 23l2 109h185v-114h103l-3 -144h-115l-4 -120c-3 -43 25 -59 62 -59c16 0 32 3 49 9z" />
    <glyph glyph-name="u" unicode="u" horiz-adv-x="579" 
d="M235 468v-268c0 -44 22 -58 51 -58c23 0 40 8 55 20v306h191v-456l-191 -22v70c-32 -39 -86 -75 -149 -75c-93 0 -148 61 -148 161v322h191z" />
    <glyph glyph-name="v" unicode="v" horiz-adv-x="552" 
d="M385 -1h-225l-167 469h204l77 -300l78 300h207z" />
    <glyph glyph-name="w" unicode="w" horiz-adv-x="816" 
d="M136 -2l-127 470h192l45 -293l65 294h205l62 -285l38 284h195l-129 -470h-198l-74 288l-77 -288h-197z" />
    <glyph glyph-name="x" unicode="x" horiz-adv-x="539" 
d="M346 0l-76 133l-75 -133h-203l162 239l-161 229h200l76 -118l75 118h199l-158 -227l162 -241h-201z" />
    <glyph glyph-name="y" unicode="y" horiz-adv-x="542" 
d="M390 36l-19 -51c-51 -147 -115 -189 -227 -189c-59 0 -112 11 -159 32l57 139c35 -15 48 -21 72 -21c32 0 44 8 55 36l5 17l-184 469h205l81 -279l70 279h204z" />
    <glyph glyph-name="z" unicode="z" horiz-adv-x="484" 
d="M17 0v103l192 212h-183v153h439v-103l-192 -212h192v-153h-448z" />
    <glyph glyph-name="braceleft" unicode="{" horiz-adv-x="431" 
d="M417 -204c-189 3 -322 16 -322 135c0 83 25 130 25 177c0 43 -38 64 -122 71l-3 77l3 77c84 7 122 23 122 67c0 48 -25 98 -25 181c0 119 133 133 322 136v-113c-107 -8 -138 -22 -138 -63c0 -33 16 -79 16 -162c0 -63 -65 -113 -152 -118v-10c87 -5 152 -56 152 -119
c0 -83 -16 -118 -16 -158c0 -44 31 -58 138 -66v-112z" />
    <glyph glyph-name="bar" unicode="|" horiz-adv-x="288" 
d="M60 701h168v-901h-168v901z" />
    <glyph glyph-name="braceright" unicode="}" horiz-adv-x="431" 
d="M433 179c-84 -7 -122 -28 -122 -71c0 -47 25 -94 25 -177c0 -119 -132 -132 -322 -135v112c107 8 138 22 138 66c0 40 -16 75 -16 158c0 63 65 114 152 119v10c-87 5 -152 55 -152 118c0 83 16 129 16 162c0 41 -31 55 -138 63v113c190 -3 322 -17 322 -136
c0 -83 -25 -133 -25 -181c0 -44 38 -60 122 -67l3 -77z" />
    <glyph glyph-name="asciitilde" unicode="~" 
d="M401 355c-13 -137 -57 -166 -116 -166c-64 0 -122 51 -151 51c-16 0 -24 -8 -28 -45h-110c13 137 59 166 116 166c64 0 122 -51 151 -51c16 0 24 8 28 45h110z" />
    <glyph glyph-name="exclamdown" unicode="&#xa1;" horiz-adv-x="319" 
d="M55 544c0 63 47 95 104 95s104 -32 104 -95s-47 -95 -104 -95s-104 32 -104 95zM266 -28h-213l37 426h139z" />
    <glyph glyph-name="cent" unicode="&#xa2;" horiz-adv-x="500" 
d="M396 472c31 -7 57 -17 78 -28l-34 -137c-21 11 -45 22 -69 29l-20 -106l-20 -106c44 1 78 18 113 37l27 -138c-36 -23 -99 -35 -166 -38l-24 -128h-79l25 133c-122 19 -201 100 -201 239c0 157 101 254 268 254c8 0 17 0 25 -1c0 1 5 26 10 51c3 15 6 32 9 51h79z
M293 343c-55 -11 -83 -55 -83 -107c0 -44 15 -75 45 -94z" />
    <glyph glyph-name="sterling" unicode="&#xa3;" horiz-adv-x="599" 
d="M107 351c-4 23 -7 47 -7 71c0 132 95 218 247 218c64 0 143 -18 196 -53c-6 -25 -12 -48 -17 -69c-9 -35 -18 -69 -18 -72c-43 31 -96 47 -141 47c-57 0 -86 -34 -86 -86c0 -15 3 -33 6 -56h155l-5 -77h-140c2 -14 3 -28 3 -41c0 -24 -2 -45 -7 -64c24 -19 58 -32 94 -32
c37 0 65 18 73 89l134 -23c-11 -155 -90 -218 -189 -218c-75 0 -130 44 -167 81c-40 -40 -99 -69 -180 -84l-40 147c72 15 114 32 114 79c0 20 -4 42 -9 66h-91l-5 77h80z" />
    <glyph glyph-name="fraction" unicode="&#x2044;" horiz-adv-x="691" 
d="M153 -15h-143l528 654h143z" />
    <glyph glyph-name="yen" unicode="&#xa5;" horiz-adv-x="648" 
d="M57 232l-5 77h157l-199 316h206l109 -215l107 215h206l-198 -316h157l-5 -77h-175v-59h175l5 -77h-176v-96h-193v96h-176l5 77h175v59h-175z" />
    <glyph glyph-name="florin" unicode="&#x192;" horiz-adv-x="502" 
d="M126 257l-118 6l29 122l107 22l7 50c16 117 77 183 198 183c63 0 119 -14 155 -33l-54 -136c-23 13 -51 21 -71 21c-31 0 -50 -20 -54 -47l-6 -43h138l-26 -144h-123l-4 -26c-24 -156 -88 -221 -253 -250l-44 137c68 15 101 38 110 89z" />
    <glyph glyph-name="section" unicode="&#xa7;" horiz-adv-x="556" 
d="M538 302c0 -51 -28 -92 -88 -115c35 -23 58 -53 58 -96c0 -83 -74 -157 -230 -157c-66 0 -161 15 -217 41l35 129c63 -29 128 -45 185 -45c36 0 48 9 48 24c0 21 -51 34 -111 47c-89 19 -200 44 -200 148c0 58 32 97 96 117c-28 23 -46 51 -46 94c0 89 77 154 225 154
c56 0 160 -14 210 -43l-36 -128c-60 29 -127 46 -174 46c-32 0 -45 -7 -45 -23c0 -23 52 -33 112 -49c82 -24 178 -59 178 -144zM394 261c0 50 -119 61 -214 101c-11 -11 -18 -31 -18 -46c0 -49 116 -62 214 -99c9 9 18 29 18 44z" />
    <glyph glyph-name="currency" unicode="&#xa4;" horiz-adv-x="575" 
d="M28 348l-5 77h84c32 160 132 224 265 224c72 0 146 -16 186 -39l-35 -137c-35 19 -76 33 -123 33c-51 0 -82 -24 -98 -81h186l-5 -77h-193c-1 -8 -1 -21 -1 -30c0 -15 0 -26 3 -39h161l5 -77h-149c19 -53 55 -74 99 -74c43 0 85 14 120 33l27 -138
c-37 -23 -109 -38 -185 -38c-137 0 -235 57 -264 217h-83l5 77h72c-1 11 -1 21 -1 32c0 13 0 25 1 37h-72z" />
    <glyph glyph-name="quotesingle" unicode="'" horiz-adv-x="263" 
d="M8 398l115 247l164 -36l-146 -211h-133z" />
    <glyph glyph-name="quotedblleft" unicode="&#x201c;" horiz-adv-x="594" 
d="M579 405c-8 -66 -62 -107 -128 -107c-85 0 -137 70 -137 146c0 96 86 163 179 208l86 -73c-49 -32 -99 -62 -99 -94c0 -28 22 -51 99 -80zM283 405c-8 -66 -62 -107 -128 -107c-85 0 -137 70 -137 146c0 96 86 163 179 208l86 -73c-49 -32 -99 -62 -99 -94
c0 -28 22 -51 99 -80z" />
    <glyph glyph-name="guillemotleft" unicode="&#xab;" horiz-adv-x="618" 
d="M565 5l-254 158v140l254 159l34 -117l-112 -111v-2l112 -110zM265 15l-250 152v134l250 151l36 -115l-112 -103v-2l112 -102z" />
    <glyph glyph-name="guilsinglleft" unicode="&#x2039;" horiz-adv-x="374" 
d="M307 5l-284 158v140l284 159l36 -117l-148 -111v-2l148 -110z" />
    <glyph glyph-name="guilsinglright" unicode="&#x203a;" horiz-adv-x="374" 
d="M67 4l-36 117l148 111v2l-148 110l36 117l284 -158v-140z" />
    <glyph glyph-name="fi" unicode="&#xfb01;" horiz-adv-x="648" 
d="M263 315v-315h-186v313l-80 6l4 122l75 22l1 30c5 141 67 203 198 203c69 0 117 -13 144 -24l-34 -154c-25 11 -45 17 -80 17c-37 0 -47 -20 -47 -52v-24h156l191 19v-478h-191v315h-151z" />
    <glyph glyph-name="fl" unicode="&#xfb02;" horiz-adv-x="682" 
d="M385 518c-25 11 -45 17 -80 17c-37 0 -47 -20 -47 -52v-24h122l-3 -144h-109v-315h-191v313l-80 6l4 122l75 22l1 30c5 141 67 203 198 203c69 0 117 -13 144 -24zM444 0v655l191 22v-677h-191z" />
    <glyph glyph-name="endash" unicode="&#x2013;" horiz-adv-x="559" 
d="M23 169l3 147h509l3 -147h-515z" />
    <glyph glyph-name="dagger" unicode="&#x2020;" horiz-adv-x="558" 
d="M29 303l-3 147h174v175h159v-175h175l-3 -147h-172v-429h-159v429h-171z" />
    <glyph glyph-name="daggerdbl" unicode="&#x2021;" horiz-adv-x="558" 
d="M29 313l-3 147h174v165h159v-165h175l-3 -147h-175v-127h175l3 -147h-175v-165h-159v165h-174l3 147h174v127h-174z" />
    <glyph glyph-name="periodcentered" unicode="&#xb7;" horiz-adv-x="301" 
d="M264 271c0 -65 -43 -105 -110 -105s-110 40 -110 105s43 105 110 105s110 -40 110 -105z" />
    <glyph glyph-name="paragraph" unicode="&#xb6;" horiz-adv-x="638" 
d="M323 168c-192 0 -289 80 -289 233c0 137 100 224 303 224h235v-699h-168v242h-81z" />
    <glyph glyph-name="bullet" unicode="&#x2022;" horiz-adv-x="433" 
d="M409 232c0 -28 -35 -116 -56 -137c-20 -20 -108 -56 -137 -56c-28 0 -116 37 -135 56c-19 22 -57 108 -57 137c0 28 37 116 57 136s108 56 136 56c27 0 118 -35 136 -56c21 -18 56 -109 56 -136z" />
    <glyph glyph-name="quotesinglbase" unicode="&#x201a;" horiz-adv-x="298" 
d="M15 87c8 66 63 107 128 107c85 0 137 -70 137 -146c0 -96 -86 -163 -179 -208l-86 73c49 32 99 62 99 94c0 28 -22 51 -99 80z" />
    <glyph glyph-name="quotedblbase" unicode="&#x201e;" horiz-adv-x="594" 
d="M311 87c8 66 63 107 128 107c85 0 137 -70 137 -146c0 -96 -86 -163 -179 -208l-86 73c49 32 99 62 99 94c0 28 -22 51 -99 80zM15 87c8 66 63 107 128 107c85 0 137 -70 137 -146c0 -96 -86 -163 -179 -208l-86 73c49 32 99 62 99 94c0 28 -22 51 -99 80z" />
    <glyph glyph-name="quotedblright" unicode="&#x201d;" horiz-adv-x="594" 
d="M311 562c8 66 63 107 128 107c85 0 137 -70 137 -146c0 -96 -86 -163 -179 -208l-86 73c49 32 99 62 99 94c0 28 -22 51 -99 80zM15 562c8 66 63 107 128 107c85 0 137 -70 137 -146c0 -96 -86 -163 -179 -208l-86 73c49 32 99 62 99 94c0 28 -22 51 -99 80z" />
    <glyph glyph-name="guillemotright" unicode="&#xbb;" horiz-adv-x="623" 
d="M358 15l-36 115l112 102v2l-112 103l36 115l250 -151v-134zM58 5l-34 117l112 110v2l-112 111l34 117l254 -159v-140z" />
    <glyph glyph-name="ellipsis" unicode="&#x2026;" horiz-adv-x="903" 
d="M859 85c0 -63 -47 -100 -104 -100s-104 37 -104 100s47 100 104 100s104 -37 104 -100zM558 85c0 -63 -47 -100 -104 -100s-104 37 -104 100s47 100 104 100s104 -37 104 -100zM257 85c0 -63 -47 -100 -104 -100s-104 37 -104 100s47 100 104 100s104 -37 104 -100z" />
    <glyph glyph-name="perthousand" unicode="&#x2030;" horiz-adv-x="1289" 
d="M381 471c0 -113 -67 -179 -182 -179s-179 67 -179 179s68 178 181 178c115 0 180 -67 180 -178zM248 -15h-143l528 654h143zM860 154c0 -113 -67 -179 -182 -179s-179 67 -179 179s68 178 181 178c115 0 180 -67 180 -178zM252 470c0 57 -21 84 -52 84s-52 -28 -52 -84
c0 -57 21 -83 53 -83c31 0 51 27 51 83zM731 153c0 57 -21 84 -52 84s-52 -28 -52 -84c0 -57 21 -83 53 -83c31 0 51 27 51 83zM1269 154c0 -113 -67 -179 -182 -179s-179 67 -179 179s68 178 181 178c115 0 180 -67 180 -178zM1140 153c0 57 -21 84 -52 84s-52 -28 -52 -84
c0 -57 21 -83 53 -83c31 0 51 27 51 83z" />
    <glyph glyph-name="questiondown" unicode="&#xbf;" horiz-adv-x="450" 
d="M30 190c0 76 50 122 122 143c39 11 58 16 69 23c0 3 -52 40 -55 43c22 3 42 6 59 9c31 4 62 8 69 8c60 -21 86 -73 86 -112c0 -44 -31 -77 -100 -93c-55 -13 -72 -17 -72 -36c0 -27 35 -35 82 -35c35 0 89 11 120 24l-9 -156c-31 -13 -75 -23 -127 -23
c-147 0 -244 86 -244 205zM144 545c0 65 43 95 110 95s110 -30 110 -95s-43 -95 -110 -95s-110 30 -110 95z" />
    <glyph glyph-name="grave" unicode="`" horiz-adv-x="398" 
d="M188 530l-181 187h200l96 -187h-115z" />
    <glyph glyph-name="acute" unicode="&#xb4;" horiz-adv-x="398" 
d="M210 530h-115l96 187h200z" />
    <glyph glyph-name="circumflex" unicode="&#x2c6;" 
d="M276 530l-75 98h-3l-71 -98h-131l121 187h166l121 -187h-128z" />
    <glyph glyph-name="tilde" unicode="&#x2dc;" horiz-adv-x="398" 
d="M401 700c-13 -137 -57 -166 -116 -166c-64 0 -122 51 -151 51c-16 0 -24 -8 -28 -45h-110c13 137 59 166 116 166c64 0 122 -51 151 -51c16 0 24 8 28 45h110z" />
    <glyph glyph-name="macron" unicode="&#xaf;" 
d="M-4 555l14 104h381l14 -104h-409z" />
    <glyph glyph-name="breve" unicode="&#x2d8;" 
d="M394 712c-11 -146 -108 -192 -194 -192c-82 0 -183 46 -194 192l107 -2c11 -56 39 -89 87 -89c51 0 76 33 87 89z" />
    <glyph glyph-name="dotaccent" unicode="&#x2d9;" 
d="M298 608c0 -57 -37 -101 -97 -101s-98 44 -98 101c0 52 39 100 98 100c60 0 97 -48 97 -100z" />
    <glyph glyph-name="dieresis" unicode="&#xa8;" 
d="M412 619c0 -59 -34 -85 -89 -85c-53 0 -89 26 -89 85s36 85 89 85c55 0 89 -26 89 -85zM165 619c0 -59 -36 -85 -89 -85c-55 0 -90 26 -90 85s35 85 90 85c53 0 89 -26 89 -85z" />
    <glyph glyph-name="ring" unicode="&#x2da;" 
d="M350 644c0 -68 -58 -122 -150 -122s-150 54 -150 122c0 69 58 123 150 123s150 -51 150 -123zM287 645c0 43 -32 70 -87 70c-52 0 -86 -27 -86 -70s34 -71 86 -71c55 0 87 28 87 71z" />
    <glyph glyph-name="cedilla" unicode="&#xb8;" 
d="M197 -42c64 -5 129 -40 129 -108c0 -73 -64 -125 -217 -144l-8 80c91 5 122 21 122 52c0 40 -39 50 -114 47l-11 56l110 98h84c-11 -10 -23 -20 -35 -30c-20 -17 -43 -36 -60 -51z" />
    <glyph glyph-name="hungarumlaut" unicode="&#x2dd;" horiz-adv-x="398" 
d="M361 530h-114l148 187h171zM147 530h-120l129 187h172z" />
    <glyph glyph-name="ogonek" unicode="&#x2db;" 
d="M346 -219c-37 -35 -85 -67 -157 -67c-75 0 -137 47 -137 123c0 84 85 168 197 195h103c-128 -43 -194 -107 -194 -170c0 -33 20 -55 60 -55c35 0 79 16 119 39z" />
    <glyph glyph-name="caron" unicode="&#x2c7;" 
d="M283 530h-166l-121 187h128l75 -98h3l71 98h131z" />
    <glyph glyph-name="emdash" unicode="&#x2014;" horiz-adv-x="1029" 
d="M23 169l3 147h979l3 -147h-985z" />
    <glyph glyph-name="AE" unicode="&#xc6;" horiz-adv-x="931" 
d="M407 270v240l-96 -240h96zM202 0h-209l277 625h625v-153h-296v-82h244v-153h-244v-84h296v-153h-488v117h-158z" />
    <glyph glyph-name="ordfeminine" unicode="&#xaa;" horiz-adv-x="420" 
d="M270 242c-13 15 -27 31 -34 62h-5c-23 -31 -61 -61 -108 -61c-64 0 -106 42 -106 102c0 75 62 128 215 135v8c0 23 -16 40 -51 40c-40 0 -89 -19 -124 -42l-40 102c41 30 122 54 188 54c121 0 180 -56 180 -152v-112c0 -47 21 -81 40 -105zM232 422
c-52 -7 -79 -21 -79 -49c0 -20 14 -34 37 -34c12 0 34 7 42 15v68z" />
    <glyph glyph-name="Lslash" unicode="&#x141;" horiz-adv-x="573" 
d="M295 161h241v-161h-438v209l-82 -22v146l82 22v270h197v-217l134 36v-146l-134 -36v-101z" />
    <glyph glyph-name="Oslash" unicode="&#xd8;" horiz-adv-x="739" 
d="M704 315c0 -204 -148 -330 -336 -330c-53 0 -101 8 -144 25l-45 -77h-76l63 107c-80 52 -131 142 -131 271c0 204 148 329 336 329c50 0 95 -7 135 -22c1 0 11 18 22 37c7 11 14 24 22 37h76l-60 -102c84 -51 138 -142 138 -275zM425 474c-18 7 -37 11 -57 11
c-92 0 -135 -70 -135 -170c0 -48 10 -89 31 -120zM307 155c18 -10 39 -15 64 -15c91 0 135 71 135 171c0 52 -12 96 -36 127z" />
    <glyph glyph-name="OE" unicode="&#x152;" horiz-adv-x="978" 
d="M942 472h-291v-82h239v-153h-239v-84h291v-153h-555c-227 0 -352 122 -352 308c0 192 120 317 356 317h551v-153zM233 314c0 -116 52 -163 167 -163h54v323h-64c-99 0 -157 -48 -157 -160z" />
    <glyph glyph-name="ordmasculine" unicode="&#xba;" horiz-adv-x="468" 
d="M444 441c0 -125 -94 -199 -212 -199c-117 0 -208 74 -208 199c0 128 94 199 212 199c117 0 208 -71 208 -199zM290 440c0 59 -20 95 -57 96c-36 0 -55 -35 -55 -94s20 -94 57 -94c36 0 55 33 55 92z" />
    <glyph glyph-name="ae" unicode="&#xe6;" horiz-adv-x="802" 
d="M343 83c-49 -55 -103 -98 -175 -98c-77 0 -139 57 -139 128c0 92 75 162 279 165v7c0 36 -25 54 -75 54c-48 0 -103 -18 -163 -45l-40 133c55 27 138 55 238 55c70 0 123 -11 158 -34c41 23 81 35 137 35c141 0 210 -91 210 -203c0 -25 -3 -66 -10 -86l-289 -7v-1
c7 -47 41 -69 109 -69c52 0 108 20 159 49l15 -142c-51 -23 -122 -38 -194 -38c-103 0 -177 36 -220 97zM596 273c1 3 1 6 1 10c0 49 -18 77 -55 77c-39 0 -64 -36 -68 -87h122zM307 196c-72 -5 -103 -19 -103 -54c0 -24 20 -38 45 -38c24 0 47 10 70 31
c-6 19 -10 40 -12 61z" />
    <glyph glyph-name="dotlessi" unicode="&#x131;" horiz-adv-x="285" 
d="M51 0v465l191 13v-478h-191z" />
    <glyph glyph-name="lslash" unicode="&#x142;" horiz-adv-x="365" 
d="M278 0h-191v209l-62 -17v146l62 17v300l191 22v-271l62 17v-146l-62 -17v-260z" />
    <glyph glyph-name="oslash" unicode="&#xf8;" horiz-adv-x="575" 
d="M555 234c0 -158 -117 -249 -265 -249c-33 0 -65 5 -96 14l-39 -66h-76l55 94c-64 43 -104 111 -104 207c0 158 117 249 265 249c37 0 71 -5 100 -16l35 59h76l-52 -88c63 -41 101 -111 101 -204zM331 352c-15 11 -27 15 -42 15c-49 0 -77 -47 -77 -128
c0 -24 2 -45 11 -73zM374 233c0 20 -1 40 -8 68l-106 -185c15 -7 24 -10 37 -10c49 0 77 47 77 127z" />
    <glyph glyph-name="oe" unicode="&#x153;" horiz-adv-x="840" 
d="M634 273c1 3 1 6 1 10c0 49 -18 77 -55 77c-39 0 -64 -36 -68 -87h122zM214 233c0 -69 25 -108 74 -108c48 0 73 39 73 110c0 69 -25 109 -74 109c-48 0 -73 -40 -73 -111zM439 27c-44 -28 -96 -42 -155 -42c-145 0 -259 83 -259 247c0 163 121 251 266 251
c56 0 107 -12 150 -39c43 25 92 39 152 39c144 0 218 -83 218 -203c0 -25 -3 -66 -10 -86l-289 -7v-1c7 -47 41 -69 109 -69c52 0 108 20 159 49l15 -142c-51 -23 -122 -38 -194 -38c-75 0 -115 14 -162 41z" />
    <glyph glyph-name="germandbls" unicode="&#xdf;" horiz-adv-x="794" 
d="M385 518c-25 11 -49 17 -80 17c-32 0 -42 -22 -42 -54v-481h-186v313l-80 6l4 122l75 22l1 30c5 141 67 203 198 203c69 0 117 -13 144 -24zM770 142c0 -83 -74 -157 -230 -157c-69 0 -164 15 -217 41l35 129c63 -29 128 -45 185 -45c36 0 48 9 48 24c0 16 -11 23 -64 34
c-131 23 -197 66 -197 161c0 89 77 154 225 154c67 0 163 -19 210 -43l-36 -128c-60 29 -127 46 -174 46c-32 0 -45 -7 -45 -23s18 -21 67 -32c132 -27 193 -64 193 -161z" />
    <glyph glyph-name="logicalnot" unicode="&#xac;" horiz-adv-x="592" 
d="M354 334c-13 7 -32 13 -55 13c-52 0 -83 -41 -83 -109s34 -105 77 -105c29 0 46 10 61 26v175zM222 -14c-108 0 -196 89 -196 241c0 163 113 255 233 255c35 0 84 -10 109 -25l177 21v-320c0 -29 7 -31 34 -35l-20 -131c-115 -17 -171 12 -199 68
c-37 -41 -78 -74 -138 -74z" />
    <glyph glyph-name="mu" unicode="&#xb5;" horiz-adv-x="592" 
d="M545 69c0 -193 -89 -273 -273 -273c-85 0 -169 24 -218 51l48 141c51 -24 107 -43 158 -43c48 0 94 11 94 85v21c-28 -33 -66 -55 -127 -55c-103 0 -201 80 -201 236c0 155 112 250 231 250c35 0 86 -10 111 -25l177 22v-410zM354 334c-13 7 -32 13 -55 13
c-52 0 -83 -39 -83 -104c0 -68 34 -105 77 -105c29 0 46 10 61 26v170z" />
    <glyph glyph-name="trademark" unicode="&#x2122;" horiz-adv-x="999" 
d="M821 252l6 262h-13l-66 -250h-132l-53 253h-11l-2 -265h-108l6 373h200l33 -243h13l46 243h193l3 -373h-115zM272 524v-272h-120v272h-119v101h370v-101h-131z" />
    <glyph glyph-name="Eth" unicode="&#xd0;" horiz-adv-x="745" 
d="M405 389v-147h-110v-91h39c98 0 177 49 177 160c0 116 -72 163 -187 163h-29v-85h110zM15 242v147h83v236h259c227 0 352 -122 352 -308c0 -192 -130 -317 -366 -317h-245v242h-83z" />
    <glyph glyph-name="onehalf" unicode="&#xbd;" horiz-adv-x="1005" 
d="M268 0h-191v313l-80 6l4 122l75 22l1 20c5 141 67 203 198 203c69 0 117 -13 144 -24l-34 -154c-25 11 -45 17 -80 17c-37 0 -47 -20 -47 -52v-14l175 4l1 30c5 141 67 203 198 203c69 0 117 -13 144 -24l-34 -154c-25 11 -45 17 -80 17c-37 0 -47 -20 -47 -52v-24h156
l191 19v-478h-191v315h-151v-315h-186v313l-166 2v-315z" />
    <glyph glyph-name="plusminus" unicode="&#xb1;" horiz-adv-x="835" 
d="M417 -81c-217 0 -392 176 -392 392c0 217 175 394 392 394s393 -177 393 -394c0 -216 -176 -392 -393 -392zM774 311c0 197 -160 360 -357 360s-356 -163 -356 -360s159 -359 356 -359s357 162 357 359zM635 368c0 -99 -70 -150 -189 -150h-31v-94h-153v386h191
c116 0 182 -51 182 -142zM490 364c0 32 -19 48 -58 48h-24v-101l18 1c43 3 64 16 64 52z" />
    <glyph glyph-name="Thorn" unicode="&#xde;" horiz-adv-x="624" 
d="M596 321c0 -151 -99 -233 -291 -233h-50v-88h-197v625h197v-80h63c177 0 278 -90 278 -224zM401 317c0 52 -33 78 -98 78h-54v-163l48 1c69 1 104 29 104 84z" />
    <glyph glyph-name="onequarter" unicode="&#xbc;" horiz-adv-x="756" 
d="M268 0h-191v313l-80 6l4 122l75 22l1 20c5 141 67 203 198 203c69 0 117 -13 144 -24l-34 -154c-25 11 -45 17 -80 17c-37 0 -47 -20 -47 -52v-14l175 4l1 30c5 141 67 203 198 203c69 0 117 -13 144 -24l-34 -154c-25 11 -45 17 -80 17c-37 0 -47 -20 -47 -52v-24h122
l-3 -144h-109v-315h-191v314l-166 1v-315z" />
    <glyph glyph-name="divide" unicode="&#xf7;" horiz-adv-x="547" 
d="M31 172l3 139h480l3 -139h-486zM362 40c0 -52 -35 -84 -88 -84s-88 32 -88 84s35 84 88 84s88 -32 88 -84zM362 443c0 -52 -35 -84 -88 -84s-88 32 -88 84s35 84 88 84s88 -32 88 -84z" />
    <glyph glyph-name="brokenbar" unicode="&#xa6;" horiz-adv-x="460" 
d="M412 227c0 -163 -78 -241 -225 -241c-79 0 -139 22 -175 45l13 170c47 -35 92 -54 128 -54c39 0 62 20 62 84v394h197v-398z" />
    <glyph glyph-name="degree" unicode="&#xb0;" horiz-adv-x="387" 
d="M359 473c0 -88 -63 -165 -166 -165c-102 0 -166 77 -166 165c0 91 64 167 166 167c103 0 166 -76 166 -167zM305 473c0 64 -41 115 -112 115s-112 -51 -112 -115c0 -60 42 -113 112 -113s112 53 112 113z" />
    <glyph glyph-name="thorn" unicode="&#xfe;" horiz-adv-x="596" 
d="M238 -193h-191v848l191 22v-259c27 29 70 65 131 65c108 0 197 -89 197 -241c0 -163 -113 -255 -233 -255c-33 0 -64 5 -95 16v-196zM238 135c13 -7 32 -13 55 -13c52 0 83 41 83 109s-26 105 -77 105c-29 0 -46 -10 -61 -26v-175z" />
    <glyph glyph-name="threequarters" unicode="&#xbe;" horiz-adv-x="1039" 
d="M801 0v655l191 22v-677h-191zM268 0h-191v313l-80 6l4 122l75 22l1 20c5 141 67 203 198 203c69 0 117 -13 144 -24l-34 -154c-25 11 -45 17 -80 17c-37 0 -47 -20 -47 -52v-14l175 4l1 30c5 141 67 203 198 203c69 0 117 -13 144 -24l-34 -154c-25 11 -45 17 -80 17
c-37 0 -47 -20 -47 -52v-24h122l-3 -144h-109v-315h-191v313l-166 2v-315z" />
    <glyph glyph-name="registered" unicode="&#xae;" horiz-adv-x="835" 
d="M417 -81c-217 0 -392 176 -392 392c0 217 175 394 392 394s393 -177 393 -394c0 -216 -176 -392 -393 -392zM774 311c0 197 -160 360 -357 360s-356 -163 -356 -360s159 -359 356 -359s357 162 357 359zM387 124h-149v385h208c115 0 173 -50 173 -129
c0 -43 -22 -87 -73 -108l86 -148h-158l-58 119l-29 -2v-117zM416 325c31 1 52 15 52 46c0 27 -15 42 -54 42h-28v-89z" />
    <glyph glyph-name="minus" unicode="&#x2212;" horiz-adv-x="547" 
d="M31 172l3 139h480l3 -139h-486z" />
    <glyph glyph-name="eth" unicode="&#xf0;" horiz-adv-x="596" 
d="M566 276c0 -163 -108 -291 -281 -291c-145 0 -255 91 -255 248s112 229 204 229c33 0 64 -10 92 -30l2 1c-23 28 -46 58 -75 87c1 0 -32 -8 -65 -17c-19 -5 -41 -11 -66 -17l-24 95l75 19c-28 21 -52 40 -72 55l210 38c19 -13 35 -27 52 -42l132 35l24 -95l-78 -19
c68 -79 125 -178 125 -296zM366 232c0 27 -4 55 -11 83c-15 12 -35 21 -58 21c-47 0 -77 -40 -77 -108s36 -97 75 -97c41 0 71 37 71 101z" />
    <glyph glyph-name="multiply" unicode="&#xd7;" horiz-adv-x="546" 
d="M416 0l-143 144l-143 -144l-98 98l145 142l-146 144l98 98l144 -146l144 146l98 -98l-146 -143l145 -143z" />
    <glyph glyph-name="copyright" unicode="&#xa9;" horiz-adv-x="835" 
d="M417 -81c-217 0 -392 176 -392 392c0 217 175 394 392 394s393 -177 393 -394c0 -216 -176 -392 -393 -392zM774 311c0 197 -160 360 -357 360s-356 -163 -356 -360s159 -359 356 -359s357 162 357 359zM535 368c-21 12 -60 22 -87 22c-47 0 -73 -31 -73 -76
c0 -48 21 -79 72 -79c35 0 62 7 94 23l34 -127c-28 -11 -88 -23 -135 -23c-136 0 -219 64 -219 203c0 128 79 207 226 207c52 0 95 -12 134 -25z" />
    <glyph glyph-name="Aacute" unicode="&#xc1;" horiz-adv-x="679" 
d="M678 0h-195l-39 117h-212l-37 -117h-194l215 625h251zM340 484l-70 -219h136zM392 657h-115l96 187h200z" />
    <glyph glyph-name="Acircumflex" unicode="&#xc2;" horiz-adv-x="679" 
d="M678 0h-195l-39 117h-212l-37 -117h-194l215 625h251zM340 484l-70 -219h136zM415 657l-75 98h-3l-71 -98h-131l121 187h166l121 -187h-128z" />
    <glyph glyph-name="Adieresis" unicode="&#xc4;" horiz-adv-x="679" 
d="M678 0h-195l-39 117h-212l-37 -117h-194l215 625h251zM340 484l-70 -219h136zM547 746c0 -59 -34 -85 -89 -85c-53 0 -89 26 -89 85s36 85 89 85c55 0 89 -26 89 -85zM300 746c0 -59 -36 -85 -89 -85c-55 0 -90 26 -90 85s35 85 90 85c53 0 89 -26 89 -85z" />
    <glyph glyph-name="Agrave" unicode="&#xc0;" horiz-adv-x="679" 
d="M678 0h-195l-39 117h-212l-37 -117h-194l215 625h251zM340 484l-70 -219h136zM290 657l-181 187h200l96 -187h-115z" />
    <glyph glyph-name="Aring" unicode="&#xc5;" horiz-adv-x="679" 
d="M340 484l-70 -219h136zM216 622c-17 21 -26 45 -26 73c0 69 58 123 150 123s150 -51 150 -123c0 -27 -8 -50 -25 -71l213 -624h-195l-39 117h-212l-37 -117h-194zM427 696c0 43 -32 70 -87 70c-52 0 -86 -27 -86 -70s34 -71 86 -71c55 0 87 28 87 71z" />
    <glyph glyph-name="Atilde" unicode="&#xc3;" horiz-adv-x="679" 
d="M678 0h-195l-39 117h-212l-37 -117h-194l215 625h251zM340 484l-70 -219h136zM541 827c-13 -137 -57 -166 -116 -166c-64 0 -122 51 -151 51c-16 0 -24 -8 -28 -45h-110c13 137 59 166 116 166c64 0 122 -51 151 -51c16 0 24 8 28 45h110z" />
    <glyph glyph-name="Ccedilla" unicode="&#xc7;" horiz-adv-x="619" 
d="M304 -10c-168 23 -269 129 -269 320c0 203 131 330 350 330c80 0 151 -17 211 -44l-59 -163c-43 25 -99 42 -150 42c-96 0 -154 -61 -154 -161c0 -101 53 -164 154 -164c59 0 110 17 159 46l43 -169c-49 -24 -134 -42 -209 -42c-11 -11 -23 -19 -32 -27
c64 -5 129 -40 129 -108c0 -73 -64 -125 -217 -144l-8 80c91 5 122 21 122 52c0 40 -39 50 -114 47l-11 56z" />
    <glyph glyph-name="Eacute" unicode="&#xc9;" horiz-adv-x="587" 
d="M58 0v625h488v-153h-296v-82h234v-153h-234v-84h296v-153h-488zM360 657h-115l96 187h200z" />
    <glyph glyph-name="Ecircumflex" unicode="&#xca;" horiz-adv-x="587" 
d="M58 0v625h488v-153h-296v-82h234v-153h-234v-84h296v-153h-488zM382 657l-75 98h-3l-71 -98h-131l121 187h166l121 -187h-128z" />
    <glyph glyph-name="Edieresis" unicode="&#xcb;" horiz-adv-x="587" 
d="M58 0v625h488v-153h-296v-82h234v-153h-234v-84h296v-153h-488zM519 746c0 -59 -34 -85 -89 -85c-53 0 -89 26 -89 85s36 85 89 85c55 0 89 -26 89 -85zM272 746c0 -59 -36 -85 -89 -85c-55 0 -90 26 -90 85s35 85 90 85c53 0 89 -26 89 -85z" />
    <glyph glyph-name="Egrave" unicode="&#xc8;" horiz-adv-x="587" 
d="M58 0v625h488v-153h-296v-82h234v-153h-234v-84h296v-153h-488zM253 657l-181 187h200l96 -187h-115z" />
    <glyph glyph-name="Iacute" unicode="&#xcd;" horiz-adv-x="315" 
d="M59 0v625h197v-625h-197zM202 657h-115l96 187h200z" />
    <glyph glyph-name="Icircumflex" unicode="&#xce;" horiz-adv-x="315" 
d="M59 0v625h197v-625h-197zM233 657l-75 98h-3l-71 -98h-131l121 187h166l121 -187h-128z" />
    <glyph glyph-name="Idieresis" unicode="&#xcf;" horiz-adv-x="315" 
d="M59 0v625h197v-625h-197zM369 746c0 -59 -34 -85 -89 -85c-53 0 -89 26 -89 85s36 85 89 85c55 0 89 -26 89 -85zM122 746c0 -59 -36 -85 -89 -85c-55 0 -90 26 -90 85s35 85 90 85c53 0 89 -26 89 -85z" />
    <glyph glyph-name="Igrave" unicode="&#xcc;" horiz-adv-x="315" 
d="M59 0v625h197v-625h-197zM103 657l-181 187h200l96 -187h-115z" />
    <glyph glyph-name="Ntilde" unicode="&#xd1;" horiz-adv-x="733" 
d="M492 625h183v-631h-209l-225 360v-354h-183v625h212l222 -355v355zM568 827c-13 -137 -57 -166 -116 -166c-64 0 -122 51 -151 51c-16 0 -24 -8 -28 -45h-110c13 137 59 166 116 166c64 0 122 -51 151 -51c16 0 24 8 28 45h110z" />
    <glyph glyph-name="Oacute" unicode="&#xd3;" horiz-adv-x="739" 
d="M704 315c0 -204 -148 -330 -336 -330s-333 108 -333 326c0 204 148 329 336 329s333 -106 333 -325zM506 311c0 103 -47 174 -138 174c-92 0 -135 -70 -135 -170c0 -103 47 -175 138 -175s135 71 135 171zM421 667h-115l96 187h200z" />
    <glyph glyph-name="Ocircumflex" unicode="&#xd4;" horiz-adv-x="739" 
d="M704 315c0 -204 -148 -330 -336 -330s-333 108 -333 326c0 204 148 329 336 329s333 -106 333 -325zM506 311c0 103 -47 174 -138 174c-92 0 -135 -70 -135 -170c0 -103 47 -175 138 -175s135 71 135 171zM445 657l-75 98h-3l-71 -98h-131l121 187h166l121 -187h-128z
" />
    <glyph glyph-name="Odieresis" unicode="&#xd6;" horiz-adv-x="739" 
d="M704 315c0 -204 -148 -330 -336 -330s-333 108 -333 326c0 204 148 329 336 329s333 -106 333 -325zM506 311c0 103 -47 174 -138 174c-92 0 -135 -70 -135 -170c0 -103 47 -175 138 -175s135 71 135 171zM581 746c0 -59 -34 -85 -89 -85c-53 0 -89 26 -89 85
s36 85 89 85c55 0 89 -26 89 -85zM334 746c0 -59 -36 -85 -89 -85c-55 0 -90 26 -90 85s35 85 90 85c53 0 89 -26 89 -85z" />
    <glyph glyph-name="Ograve" unicode="&#xd2;" horiz-adv-x="739" 
d="M704 315c0 -204 -148 -330 -336 -330s-333 108 -333 326c0 204 148 329 336 329s333 -106 333 -325zM506 311c0 103 -47 174 -138 174c-92 0 -135 -70 -135 -170c0 -103 47 -175 138 -175s135 71 135 171zM316 667l-181 187h200l96 -187h-115z" />
    <glyph glyph-name="Otilde" unicode="&#xd5;" horiz-adv-x="739" 
d="M704 315c0 -204 -148 -330 -336 -330s-333 108 -333 326c0 204 148 329 336 329s333 -106 333 -325zM506 311c0 103 -47 174 -138 174c-92 0 -135 -70 -135 -170c0 -103 47 -175 138 -175s135 71 135 171zM571 827c-13 -137 -57 -166 -116 -166c-64 0 -122 51 -151 51
c-16 0 -24 -8 -28 -45h-110c13 137 59 166 116 166c64 0 122 -51 151 -51c16 0 24 8 28 45h110z" />
    <glyph glyph-name="Scaron" unicode="&#x160;" horiz-adv-x="592" 
d="M286 144c45 0 75 9 75 36c0 31 -44 38 -117 60c-92 27 -208 69 -208 197c0 123 85 202 256 202c112 0 192 -24 252 -55l-31 -161c-71 35 -155 57 -220 57c-39 0 -60 -8 -60 -33c0 -29 60 -44 122 -60c99 -27 203 -72 203 -191c0 -125 -94 -211 -275 -211
c-104 0 -200 25 -257 56l30 161c68 -33 150 -58 230 -58zM379 667h-166l-121 187h128l75 -98h3l71 98h131z" />
    <glyph glyph-name="Uacute" unicode="&#xda;" horiz-adv-x="686" 
d="M634 262c0 -193 -120 -277 -291 -277c-166 0 -291 72 -291 261v379h197v-355c0 -84 29 -123 97 -123c65 0 92 30 92 118v360h196v-363zM387 657h-115l96 187h200z" />
    <glyph glyph-name="Ucircumflex" unicode="&#xdb;" horiz-adv-x="686" 
d="M634 262c0 -193 -120 -277 -291 -277c-166 0 -291 72 -291 261v379h197v-355c0 -84 29 -123 97 -123c65 0 92 30 92 118v360h196v-363zM419 657l-75 98h-3l-71 -98h-131l121 187h166l121 -187h-128z" />
    <glyph glyph-name="Udieresis" unicode="&#xdc;" horiz-adv-x="686" 
d="M634 262c0 -193 -120 -277 -291 -277c-166 0 -291 72 -291 261v379h197v-355c0 -84 29 -123 97 -123c65 0 92 30 92 118v360h196v-363zM555 746c0 -59 -34 -85 -89 -85c-53 0 -89 26 -89 85s36 85 89 85c55 0 89 -26 89 -85zM308 746c0 -59 -36 -85 -89 -85
c-55 0 -90 26 -90 85s35 85 90 85c53 0 89 -26 89 -85z" />
    <glyph glyph-name="Ugrave" unicode="&#xd9;" horiz-adv-x="686" 
d="M634 262c0 -193 -120 -277 -291 -277c-166 0 -291 72 -291 261v379h197v-355c0 -84 29 -123 97 -123c65 0 92 30 92 118v360h196v-363zM298 657l-181 187h200l96 -187h-115z" />
    <glyph glyph-name="Yacute" unicode="&#xdd;" horiz-adv-x="648" 
d="M421 231v-231h-193v232l-218 393h206l110 -224l106 224h206zM372 657h-115l96 187h200z" />
    <glyph glyph-name="Ydieresis" unicode="&#x178;" horiz-adv-x="648" 
d="M421 231v-231h-193v232l-218 393h206l110 -224l106 224h206zM536 746c0 -59 -34 -85 -89 -85c-53 0 -89 26 -89 85s36 85 89 85c55 0 89 -26 89 -85zM289 746c0 -59 -36 -85 -89 -85c-55 0 -90 26 -90 85s35 85 90 85c53 0 89 -26 89 -85z" />
    <glyph glyph-name="Zcaron" unicode="&#x17d;" horiz-adv-x="611" 
d="M35 0v126l291 338h-285v161h533v-127l-289 -336h288v-162h-538zM393 657h-166l-121 187h128l75 -98h3l71 98h131z" />
    <glyph glyph-name="aacute" unicode="&#xe1;" horiz-adv-x="542" 
d="M304 196c-73 -7 -100 -19 -100 -54c0 -24 20 -39 45 -39c27 0 44 10 55 22v71zM306 60c-32 -37 -65 -75 -138 -75c-77 0 -139 57 -139 128c0 91 70 162 275 165v7c0 36 -24 54 -71 54c-48 0 -103 -18 -163 -45l-40 133c55 27 136 56 236 56c179 0 232 -83 229 -216
l-1 -109c0 -29 7 -31 34 -35l-19 -131c-116 -17 -173 11 -200 68h-3zM296 530h-115l96 187h200z" />
    <glyph glyph-name="acircumflex" unicode="&#xe2;" horiz-adv-x="542" 
d="M304 196c-73 -7 -100 -19 -100 -54c0 -24 20 -39 45 -39c27 0 44 10 55 22v71zM306 60c-32 -37 -65 -75 -138 -75c-77 0 -139 57 -139 128c0 91 70 162 275 165v7c0 36 -24 54 -71 54c-48 0 -103 -18 -163 -45l-40 133c55 27 136 56 236 56c179 0 232 -83 229 -216
l-1 -109c0 -29 7 -31 34 -35l-19 -131c-116 -17 -173 11 -200 68h-3zM333 530l-75 98h-3l-71 -98h-131l121 187h166l121 -187h-128z" />
    <glyph glyph-name="adieresis" unicode="&#xe4;" horiz-adv-x="542" 
d="M304 196c-73 -7 -100 -19 -100 -54c0 -24 20 -39 45 -39c27 0 44 10 55 22v71zM306 60c-32 -37 -65 -75 -138 -75c-77 0 -139 57 -139 128c0 91 70 162 275 165v7c0 36 -24 54 -71 54c-48 0 -103 -18 -163 -45l-40 133c55 27 136 56 236 56c179 0 232 -83 229 -216
l-1 -109c0 -29 7 -31 34 -35l-19 -131c-116 -17 -173 11 -200 68h-3zM479 609c0 -59 -34 -85 -89 -85c-53 0 -89 26 -89 85s36 85 89 85c55 0 89 -26 89 -85zM232 609c0 -59 -36 -85 -89 -85c-55 0 -90 26 -90 85s35 85 90 85c53 0 89 -26 89 -85z" />
    <glyph glyph-name="agrave" unicode="&#xe0;" horiz-adv-x="542" 
d="M207 530l-181 187h200l96 -187h-115zM304 196c-73 -7 -100 -19 -100 -54c0 -24 20 -39 45 -39c27 0 44 10 55 22v71zM306 60c-32 -37 -65 -75 -138 -75c-77 0 -139 57 -139 128c0 91 70 162 275 165v7c0 36 -24 54 -71 54c-48 0 -103 -18 -163 -45l-40 133
c55 27 136 56 236 56c179 0 232 -83 229 -216l-1 -109c0 -29 7 -31 34 -35l-19 -131c-116 -17 -173 11 -200 68h-3z" />
    <glyph glyph-name="aring" unicode="&#xe5;" horiz-adv-x="542" 
d="M304 196c-73 -7 -100 -19 -100 -54c0 -24 20 -39 45 -39c27 0 44 10 55 22v71zM306 60c-32 -37 -65 -75 -138 -75c-77 0 -139 57 -139 128c0 91 70 162 275 165v7c0 36 -24 54 -71 54c-48 0 -103 -18 -163 -45l-40 133c55 27 136 56 236 56c179 0 232 -83 229 -216
l-1 -109c0 -29 7 -31 34 -35l-19 -131c-116 -17 -173 11 -200 68h-3zM397 644c0 -68 -58 -122 -150 -122s-150 54 -150 122c0 69 58 123 150 123s150 -51 150 -123zM334 645c0 43 -32 70 -87 70c-52 0 -86 -27 -86 -70s34 -71 86 -71c55 0 87 28 87 71z" />
    <glyph glyph-name="atilde" unicode="&#xe3;" horiz-adv-x="542" 
d="M304 196c-73 -7 -100 -19 -100 -54c0 -24 20 -39 45 -39c27 0 44 10 55 22v71zM306 60c-32 -37 -65 -75 -138 -75c-77 0 -139 57 -139 128c0 91 70 162 275 165v7c0 36 -24 54 -71 54c-48 0 -103 -18 -163 -45l-40 133c55 27 136 56 236 56c179 0 232 -83 229 -216
l-1 -109c0 -29 7 -31 34 -35l-19 -131c-116 -17 -173 11 -200 68h-3zM468 700c-13 -137 -57 -166 -116 -166c-64 0 -122 51 -151 51c-16 0 -24 -8 -28 -45h-110c13 137 59 166 116 166c64 0 122 -51 151 -51c16 0 24 8 28 45h110z" />
    <glyph glyph-name="ccedilla" unicode="&#xe7;" horiz-adv-x="500" 
d="M235 -11c-127 17 -209 96 -209 240c0 157 101 254 268 254c69 0 139 -16 180 -39l-34 -137c-36 19 -82 35 -121 35c-64 0 -99 -46 -99 -106c0 -72 42 -109 106 -109c47 0 83 14 118 34l27 -138c-35 -21 -93 -34 -157 -37c-12 -11 -24 -20 -33 -28c64 -5 129 -40 129 -108
c0 -73 -64 -125 -217 -144l-8 80c91 5 122 21 122 52c0 40 -39 50 -114 47l-11 56z" />
    <glyph glyph-name="eacute" unicode="&#xe9;" horiz-adv-x="536" 
d="M210 186c7 -47 41 -69 109 -69c52 0 108 20 159 49l15 -142c-51 -23 -122 -38 -194 -38c-168 0 -274 83 -274 245c0 155 106 252 264 252c144 0 220 -83 220 -203c0 -25 -3 -66 -10 -86l-289 -7v-1zM332 273c1 3 1 6 1 10c0 49 -18 77 -55 77c-39 0 -64 -36 -68 -87h122z
M322 530h-115l96 187h200z" />
    <glyph glyph-name="ecircumflex" unicode="&#xea;" horiz-adv-x="536" 
d="M210 186c7 -47 41 -69 109 -69c52 0 108 20 159 49l15 -142c-51 -23 -122 -38 -194 -38c-168 0 -274 83 -274 245c0 155 106 252 264 252c144 0 220 -83 220 -203c0 -25 -3 -66 -10 -86l-289 -7v-1zM332 273c1 3 1 6 1 10c0 49 -18 77 -55 77c-39 0 -64 -36 -68 -87h122z
M347 530l-75 98h-3l-71 -98h-131l121 187h166l121 -187h-128z" />
    <glyph glyph-name="edieresis" unicode="&#xeb;" horiz-adv-x="536" 
d="M210 186c7 -47 41 -69 109 -69c52 0 108 20 159 49l15 -142c-51 -23 -122 -38 -194 -38c-168 0 -274 83 -274 245c0 155 106 252 264 252c144 0 220 -83 220 -203c0 -25 -3 -66 -10 -86l-289 -7v-1zM332 273c1 3 1 6 1 10c0 49 -18 77 -55 77c-39 0 -64 -36 -68 -87h122z
M492 609c0 -59 -34 -85 -89 -85c-53 0 -89 26 -89 85s36 85 89 85c55 0 89 -26 89 -85zM245 609c0 -59 -36 -85 -89 -85c-55 0 -90 26 -90 85s35 85 90 85c53 0 89 -26 89 -85z" />
    <glyph glyph-name="egrave" unicode="&#xe8;" horiz-adv-x="536" 
d="M230 530l-181 187h200l96 -187h-115zM210 186c7 -47 41 -69 109 -69c52 0 108 20 159 49l15 -142c-51 -23 -122 -38 -194 -38c-168 0 -274 83 -274 245c0 155 106 252 264 252c144 0 220 -83 220 -203c0 -25 -3 -66 -10 -86l-289 -7v-1zM332 273c1 3 1 6 1 10
c0 49 -18 77 -55 77c-39 0 -64 -36 -68 -87h122z" />
    <glyph glyph-name="iacute" unicode="&#xed;" horiz-adv-x="285" 
d="M51 0v465l191 13v-478h-191zM184 530h-115l96 187h200z" />
    <glyph glyph-name="icircumflex" unicode="&#xee;" horiz-adv-x="285" 
d="M51 0v465l191 13v-478h-191zM225 530l-75 98h-3l-71 -98h-131l121 187h166l121 -187h-128z" />
    <glyph glyph-name="idieresis" unicode="&#xef;" horiz-adv-x="285" 
d="M51 0v465l191 13v-478h-191zM361 609c0 -59 -34 -85 -89 -85c-53 0 -89 26 -89 85s36 85 89 85c55 0 89 -26 89 -85zM114 609c0 -59 -36 -85 -89 -85c-55 0 -90 26 -90 85s35 85 90 85c53 0 89 -26 89 -85z" />
    <glyph glyph-name="igrave" unicode="&#xec;" horiz-adv-x="285" 
d="M51 0v465l191 13v-478h-191zM104 530l-181 187h200l96 -187h-115z" />
    <glyph glyph-name="ntilde" unicode="&#xf1;" horiz-adv-x="590" 
d="M354 0v268c0 44 -22 58 -51 58c-27 0 -49 -13 -65 -28v-298h-191v456l191 22v-80c40 51 95 85 159 85c93 0 148 -61 148 -161v-322h-191zM497 700c-13 -137 -57 -166 -116 -166c-64 0 -122 51 -151 51c-16 0 -24 -8 -28 -45h-110c13 137 59 166 116 166
c64 0 122 -51 151 -51c16 0 24 8 28 45h110z" />
    <glyph glyph-name="oacute" unicode="&#xf3;" horiz-adv-x="575" 
d="M550 236c0 -160 -121 -251 -266 -251s-259 83 -259 247c0 163 121 251 266 251s259 -87 259 -247zM361 235c0 69 -25 109 -74 109c-48 0 -73 -40 -73 -111c0 -69 25 -108 74 -108c48 0 73 39 73 110zM330 530h-115l96 187h200z" />
    <glyph glyph-name="ocircumflex" unicode="&#xf4;" horiz-adv-x="575" 
d="M550 236c0 -160 -121 -251 -266 -251s-259 83 -259 247c0 163 121 251 266 251s259 -87 259 -247zM361 235c0 69 -25 109 -74 109c-48 0 -73 -40 -73 -111c0 -69 25 -108 74 -108c48 0 73 39 73 110zM368 530l-75 98h-3l-71 -98h-131l121 187h166l121 -187h-128z" />
    <glyph glyph-name="odieresis" unicode="&#xf6;" horiz-adv-x="575" 
d="M550 236c0 -160 -121 -251 -266 -251s-259 83 -259 247c0 163 121 251 266 251s259 -87 259 -247zM361 235c0 69 -25 109 -74 109c-48 0 -73 -40 -73 -111c0 -69 25 -108 74 -108c48 0 73 39 73 110zM504 609c0 -59 -34 -85 -89 -85c-53 0 -89 26 -89 85s36 85 89 85
c55 0 89 -26 89 -85zM257 609c0 -59 -36 -85 -89 -85c-55 0 -90 26 -90 85s35 85 90 85c53 0 89 -26 89 -85z" />
    <glyph glyph-name="ograve" unicode="&#xf2;" horiz-adv-x="575" 
d="M253 530l-181 187h200l96 -187h-115zM550 236c0 -160 -121 -251 -266 -251s-259 83 -259 247c0 163 121 251 266 251s259 -87 259 -247zM361 235c0 69 -25 109 -74 109c-48 0 -73 -40 -73 -111c0 -69 25 -108 74 -108c48 0 73 39 73 110z" />
    <glyph glyph-name="otilde" unicode="&#xf5;" horiz-adv-x="575" 
d="M550 236c0 -160 -121 -251 -266 -251s-259 83 -259 247c0 163 121 251 266 251s259 -87 259 -247zM361 235c0 69 -25 109 -74 109c-48 0 -73 -40 -73 -111c0 -69 25 -108 74 -108c48 0 73 39 73 110zM494 700c-13 -137 -57 -166 -116 -166c-64 0 -122 51 -151 51
c-16 0 -24 -8 -28 -45h-110c13 137 59 166 116 166c64 0 122 -51 151 -51c16 0 24 8 28 45h110z" />
    <glyph glyph-name="scaron" unicode="&#x161;" horiz-adv-x="491" 
d="M467 142c0 -83 -74 -157 -230 -157c-69 0 -164 15 -217 41l35 129c63 -29 128 -45 185 -45c36 0 48 9 48 24c0 16 -11 23 -64 34c-131 23 -197 66 -197 161c0 89 77 154 225 154c67 0 163 -19 210 -43l-36 -128c-60 29 -127 46 -174 46c-32 0 -45 -7 -45 -23
s18 -21 67 -32c132 -27 193 -64 193 -161zM328 530h-166l-121 187h128l75 -98h3l71 98h131z" />
    <glyph glyph-name="uacute" unicode="&#xfa;" horiz-adv-x="579" 
d="M235 468v-268c0 -44 22 -58 51 -58c23 0 40 8 55 20v306h191v-456l-191 -22v70c-32 -39 -86 -75 -149 -75c-93 0 -148 61 -148 161v322h191zM344 530h-115l96 187h200z" />
    <glyph glyph-name="ucircumflex" unicode="&#xfb;" horiz-adv-x="579" 
d="M235 468v-268c0 -44 22 -58 51 -58c23 0 40 8 55 20v306h191v-456l-191 -22v70c-32 -39 -86 -75 -149 -75c-93 0 -148 61 -148 161v322h191zM365 530l-75 98h-3l-71 -98h-131l121 187h166l121 -187h-128z" />
    <glyph glyph-name="udieresis" unicode="&#xfc;" horiz-adv-x="579" 
d="M235 468v-268c0 -44 22 -58 51 -58c23 0 40 8 55 20v306h191v-456l-191 -22v70c-32 -39 -86 -75 -149 -75c-93 0 -148 61 -148 161v322h191zM503 609c0 -59 -34 -85 -89 -85c-53 0 -89 26 -89 85s36 85 89 85c55 0 89 -26 89 -85zM256 609c0 -59 -36 -85 -89 -85
c-55 0 -90 26 -90 85s35 85 90 85c53 0 89 -26 89 -85z" />
    <glyph glyph-name="ugrave" unicode="&#xf9;" horiz-adv-x="579" 
d="M235 468v-268c0 -44 22 -58 51 -58c23 0 40 8 55 20v306h191v-456l-191 -22v70c-32 -39 -86 -75 -149 -75c-93 0 -148 61 -148 161v322h191zM233 530l-181 187h200l96 -187h-115z" />
    <glyph glyph-name="yacute" unicode="&#xfd;" horiz-adv-x="542" 
d="M390 36l-19 -51c-51 -147 -115 -189 -227 -189c-59 0 -112 11 -159 32l57 139c35 -15 48 -21 72 -21c32 0 44 8 55 36l5 17l-184 469h205l81 -279l70 279h204zM309 530h-115l96 187h200z" />
    <glyph glyph-name="ydieresis" unicode="&#xff;" horiz-adv-x="542" 
d="M390 36l-19 -51c-51 -147 -115 -189 -227 -189c-59 0 -112 11 -159 32l57 139c35 -15 48 -21 72 -21c32 0 44 8 55 36l5 17l-184 469h205l81 -279l70 279h204zM480 619c0 -59 -34 -85 -89 -85c-53 0 -89 26 -89 85s36 85 89 85c55 0 89 -26 89 -85zM233 619
c0 -59 -36 -85 -89 -85c-55 0 -90 26 -90 85s35 85 90 85c53 0 89 -26 89 -85z" />
    <glyph glyph-name="zcaron" unicode="&#x17e;" horiz-adv-x="484" 
d="M17 0v103l192 212h-183v153h439v-103l-192 -212h192v-153h-448zM323 530h-166l-121 187h128l75 -98h3l71 98h131z" />
    <glyph glyph-name="ff" unicode="&#xfb00;" horiz-adv-x="756" 
d="M268 0h-191v313l-80 6l4 122l75 22l1 20c5 141 67 203 198 203c69 0 117 -13 144 -24l-34 -154c-25 11 -45 17 -80 17c-37 0 -47 -20 -47 -52v-14l175 4l1 30c5 141 67 203 198 203c69 0 117 -13 144 -24l-34 -154c-25 11 -45 17 -80 17c-37 0 -47 -20 -47 -52v-24h122
l-3 -144h-109v-315h-191v314l-166 1v-315z" />
    <glyph glyph-name="ffi" unicode="&#xfb03;" horiz-adv-x="1005" 
d="M268 0h-191v313l-80 6l4 122l75 22l1 20c5 141 67 203 198 203c69 0 117 -13 144 -24l-34 -154c-25 11 -45 17 -80 17c-37 0 -47 -20 -47 -52v-14l175 4l1 30c5 141 67 203 198 203c69 0 117 -13 144 -24l-34 -154c-25 11 -45 17 -80 17c-37 0 -47 -20 -47 -52v-24h156
l191 19v-478h-191v315h-151v-315h-186v313l-166 2v-315z" />
    <glyph glyph-name="ffl" unicode="&#xfb04;" horiz-adv-x="1039" 
d="M801 0v655l191 22v-677h-191zM268 0h-191v313l-80 6l4 122l75 22l1 20c5 141 67 203 198 203c69 0 117 -13 144 -24l-34 -154c-25 11 -45 17 -80 17c-37 0 -47 -20 -47 -52v-14l175 4l1 30c5 141 67 203 198 203c69 0 117 -13 144 -24l-34 -154c-25 11 -45 17 -80 17
c-37 0 -47 -20 -47 -52v-24h122l-3 -144h-109v-315h-191v313l-166 2v-315z" />
    <glyph glyph-name=".null" horiz-adv-x="0" 
 />
    <glyph glyph-name="CR" horiz-adv-x="184" 
 />
    <glyph glyph-name="nbspace" unicode="&#xa0;" horiz-adv-x="160" 
 />
    <glyph glyph-name="apple" unicode="&#xf8ff;" horiz-adv-x="758" 
d="M583 148l69 -189l-189 69l-85 -181l-84 180l-187 -68l68 187l-181 86l181 83l-68 189l187 -69l86 181l83 -181l189 69l-69 -189l180 -82zM531 294l50 139l-139 -50l-63 133l-63 -133l-139 50l51 -139l-134 -63l134 -63l-51 -138l139 51l62 -135l64 135l139 -51l-50 140
l132 62z" />
    <glyph glyph-name="Euro" unicode="&#x20ac;" horiz-adv-x="575" 
d="M28 348l-5 77h84c32 160 132 224 265 224c72 0 146 -16 186 -39l-35 -137c-35 19 -76 33 -123 33c-51 0 -82 -24 -98 -81h186l-5 -77h-193c-1 -8 -1 -21 -1 -30c0 -15 0 -26 3 -39h161l5 -77h-149c19 -53 55 -74 99 -74c43 0 85 14 120 33l27 -138
c-37 -23 -109 -38 -185 -38c-137 0 -235 57 -264 217h-83l5 77h72c-1 11 -1 21 -1 32c0 13 0 25 1 37h-72z" />
    </font>
</defs>
</svg>
